HIERARCHY
ROOT Hips
{
  OFFSET -33.9132 29.2015 117.021
  CHANNELS 6 Xposition Yposition Zposition Zrotation Xrotation Yrotation
  JOINT LeftUpLeg
  {
    OFFSET 8.64259 1.95398 -2.38835
    CHANNELS 3 Zrotation Xrotation Yrotation
    JOINT LeftLeg
    {
      OFFSET 43.7702 0 0
      CHANNELS 3 Zrotation Xrotation Yrotation
      JOINT LeftFoot
      {
        OFFSET 40.6238 0 0
        CHANNELS 3 Zrotation Xrotation Yrotation
        JOINT LeftToeBase
        {
          OFFSET 12.7242 0 0
          CHANNELS 3 Zrotation Xrotation Yrotation
          End Site
          {
            OFFSET 0 0 0
          }
        }
      }
    }
  }
  JOINT RightUpLeg
  {
    OFFSET -8.2249 1.95398 -2.59336
    CHANNELS 3 Zrotation Xrotation Yrotation
    JOINT RightLeg
    {
      OFFSET 43.5653 0 0
      CHANNELS 3 Zrotation Xrotation Yrotation
      JOINT RightFoot
      {
        OFFSET 40.6238 0 0
        CHANNELS 3 Zrotation Xrotation Yrotation
        JOINT RightToeBase
        {
          OFFSET 12.7242 0 0
          CHANNELS 3 Zrotation Xrotation Yrotation
          End Site
          {
            OFFSET 0 0 0
          }
        }
      }
    }
  }
  JOINT Spine
  {
    OFFSET 0.165834 0.87714 6.61349
    CHANNELS 3 Zrotation Xrotation Yrotation
    JOINT Spine1
    {
      OFFSET 7.38963 1.71661e-005 0
      CHANNELS 3 Zrotation Xrotation Yrotation
      JOINT Spine2
      {
        OFFSET 11.9445 1.14441e-005 0
        CHANNELS 3 Zrotation Xrotation Yrotation
        JOINT Spine3
        {
          OFFSET 14.7254 4.19617e-005 0
          CHANNELS 3 Zrotation Xrotation Yrotation
          JOINT Spine4
          {
            OFFSET 10.9679 0 0
            CHANNELS 3 Zrotation Xrotation Yrotation
            JOINT RightShoulder
            {
              OFFSET 2.46616 -1.6653 3.69651
              CHANNELS 3 Zrotation Xrotation Yrotation
              JOINT RightArm
              {
                OFFSET 13.0012 0 0
                CHANNELS 3 Zrotation Xrotation Yrotation
                JOINT RightForeArm
                {
                  OFFSET 28.7848 1.62311e-005 0
                  CHANNELS 3 Zrotation Xrotation Yrotation
                  JOINT RightHand
                  {
                    OFFSET 26.5688 1.62095e-005 0
                    CHANNELS 3 Zrotation Xrotation Yrotation
                    End Site
                    {
                      OFFSET 0 0 0
                    }
                  }
                }
              }
            }
            JOINT LeftShoulder
            {
              OFFSET 2.38034 -1.29275 -3.7523
              CHANNELS 3 Zrotation Xrotation Yrotation
              JOINT LeftArm
              {
                OFFSET 16.3182 6.07031e-005 0
                CHANNELS 3 Zrotation Xrotation Yrotation
                JOINT LeftForeArm
                {
                  OFFSET 27.0901 0 0
                  CHANNELS 3 Zrotation Xrotation Yrotation
                  JOINT LeftHand
                  {
                    OFFSET 24.5451 1.51738e-005 0
                    CHANNELS 3 Zrotation Xrotation Yrotation
                    End Site
                    {
                      OFFSET 0 0 0
                    }
                  }
                }
              }
            }
            JOINT Neck
            {
              OFFSET 5.0226 -0.0266342 0
              CHANNELS 3 Zrotation Xrotation Yrotation
              JOINT Head
              {
                OFFSET 6.69364 2.86102e-005 0
                CHANNELS 3 Zrotation Xrotation Yrotation
                End Site
                {
                  OFFSET 0 0 0
                }
              }
            }
          }
        }
      }
    }
  }
}
MOTION
Frames:	14
Frame Time:	0.0416667
5.95606 72.2105 -28.2437 82.3494 46.1004 95.6361 -160.442 57.9236 80.1126 -95.2235 9.82458 1.38997 97.2834 25.5186 1.15419 31.1787 -0.379018 3.70063 169.013 42.4892 101.311 -95.6985 4.02126 -2.32042 101.047 -29.5199 -0.681951 41.1479 -5.47733 -0.633799 0.331874 10.5475 -89.7114 5.77658 0.783947 0.546177 -5.89424 0.807207 0.511143 -28.4296 0.583557 0.756534 -8.417 0.583565 0.756535 91.1054 -15.1071 -111.341 22.8335 17.8964 -44.68 -40.9578 -32.0624 -58.0284 -47.3642 6.59304 -20.3353 -90.5119 -26.8855 71.1724 -21.2074 -15.076 -85.8239 -2.61811 63.1911 -2.61509 59.2582 -6.46816 -8.9482 19.2754 -0.0345684 -1.80013 3.64762 0.57036 0.991315 
11.5586 75.0218 -33.9929 78.6641 46.9542 97.5796 -163.317 49.8236 83.2478 -89.7298 9.0679 0.900752 104.297 28.9541 -2.59771 33.1829 -0.0568064 5.43244 169.809 40.6682 100.346 -94.8094 -0.169554 -2.39761 87.0199 -21.9714 -8.10913 49.2953 -9.21231 4.12369 0.412542 10.1872 -89.6113 6.49574 0.9892 0.729583 -5.175 1.02037 0.685322 -27.7103 0.724228 0.993147 -7.69768 0.72422 0.993139 91.4826 -14.2817 -110.862 22.7267 20.8965 -35.8047 -40.8713 -22.7969 -65.8982 -49.8035 5.95961 -18.1346 -90.0495 -26.8596 72.0708 -18.7431 -15.5929 -88.5968 3.99628 64.4516 -10.1539 60.591 -8.21593 -11.3116 18.9142 -0.916468 -2.57626 4.9712 -0.0442988 0.904589 
17.569 78.0058 -40.0637 77.2444 47.5377 98.328 -165.521 40.3082 86.2144 -82.7325 9.16749 0.249159 105.645 30.427 -2.52648 37.1998 1.43171 6.94315 171.893 41.1435 99.4079 -96.8007 -3.95562 -2.78575 71.932 -9.18072 -6.59545 41.223 -6.61044 8.60718 0.299301 10.0057 -89.537 6.8585 0.7959 0.879611 -4.81246 0.833864 0.843722 -27.3462 0.494759 1.07813 -7.33352 0.494765 1.07813 91.1107 -15.3746 -111.171 23.7028 21.6447 -21.4673 -40.4457 -11.9463 -76.7986 -49.9428 7.87084 -22.1529 -89.4422 -28.2831 73.7957 -12.7968 -17.7189 -89.0847 7.33121 59.9919 -15.8715 63.2974 -10.4147 -14.2984 19.9184 -0.844032 -3.05292 4.88121 0.1212 -0.209278 
23.8839 81.0184 -46.4565 75.3745 47.9583 100.404 -166.906 31.9924 89.4261 -75.1588 11.3208 -0.292787 101.083 29.2025 0.210304 43.832 4.8578 6.52133 173.424 42.6817 100.099 -98.277 -8.88812 -3.07836 68.4757 -6.55357 -6.02868 21.2528 0.072106 10.8587 0.0929893 9.72749 -89.5212 7.41625 0.393091 0.925044 -4.25493 0.433437 0.906841 -26.7875 0.0969191 1.00041 -6.77487 0.0969308 1.00041 89.7603 -19.9559 -111.854 24.6905 20.4344 -2.27058 -46.4857 -5.16326 -89.4483 -50.1464 10.624 -27.9458 -88.8407 -27.2573 74.6253 -7.98747 -19.8869 -88.7131 11.3361 58.4906 -21.4029 65.2265 -11.1646 -14.7844 19.3699 -0.941876 -6.16178 6.01633 1.01833 0.637484 
30.6263 83.6604 -52.8931 71.5732 48.759 103.372 -167.972 24.2711 91.6279 -65.7097 13.5403 -0.834565 96.0218 26.9187 1.67485 48.0901 6.78185 7.14201 172.52 45.594 101.759 -94.4153 -3.55205 -2.62 75.5081 -11.2847 -6.67407 27.8014 -1.74202 8.75482 -0.245309 9.27067 -89.576 8.33294 -0.302721 0.856531 -3.33827 -0.264736 0.869015 -25.872 -0.546156 0.72596 -5.85933 -0.546148 0.725956 89.452 -24.2458 -110.351 26.2534 14.8273 20.0479 -48.0405 2.5744 -95.4813 -45.7924 13.6915 -37.3463 -87.8942 -25.4083 75.9135 -7.96995 -20.8349 -90.3038 17.7474 58.9863 -27.7848 68.6173 -12.6535 -15.6477 19.7302 -0.782921 -6.9692 5.35272 1.46008 0.947719 
37.2066 86.233 -60.0948 70.6987 48.049 106.08 -167.897 14.8615 95.3068 -54.4547 14.8087 -1.19158 87.7782 22.0886 3.92597 55.0501 10.3104 5.81022 172.414 49.3723 103.777 -87.0415 -1.3451 -1.77754 79.2243 -13.286 -5.2827 27.275 -1.11947 7.01987 -0.3685 9.00777 -89.9736 8.86078 -0.723255 0.0994555 -2.80995 -0.718208 0.131177 -25.3469 -0.719717 -0.122523 -5.33426 -0.719705 -0.122532 90.6378 -23.8814 -107.954 31.1908 4.37759 39.1247 -48.7717 3.8768 -97.0683 -47.329 14.9432 -38.957 -87.0876 -24.0351 77.1394 -7.8807 -20.9576 -91.3413 20.5441 58.2805 -30.8933 68.7846 -14.5037 -18.1573 21.5617 0.366784 -4.42727 3.41945 1.75772 -0.360071 
44.1509 88.6671 -67.9562 71.9259 46.845 106.895 -167.38 4.56548 98.2842 -42.0841 18.0646 -1.20711 74.5916 12.9272 5.83933 67.5611 15.6237 2.20237 173.322 52.3316 104.044 -76.1581 -4.20361 -0.727054 81.2639 -14.9008 -5.64062 26.3975 -1.06414 8.12507 -0.425501 8.91351 -90.4417 9.04157 -1.04597 -0.800815 -2.62918 -1.08019 -0.754008 -25.1643 -0.756967 -1.07814 -5.15161 -0.756945 -1.07814 90.822 -22.0713 -108.364 40.1686 -3.26281 52.3294 -44.9319 0.984677 -90.9741 -49.6996 13.9822 -35.2235 -87.1548 -24.4237 77.1266 -7.46482 -19.8608 -90.8734 17.9903 56.9647 -29.1924 71.1372 -14.1905 -16.948 24.3211 2.31998 -0.894324 0.414623 2.50124 -1.06166 
51.4887 90.5148 -76.1853 73.4474 44.6091 106.859 -168.419 -4.11945 99.0467 -33.5555 20.5966 0.226123 60.595 2.31297 6.14909 62.0856 14.2286 -5.02281 174.738 54.7808 103.294 -62.6032 -10.2934 0.483248 77.2377 -11.927 -5.20524 24.7811 -0.278579 7.49443 -0.596007 8.74859 -90.5598 9.36896 -1.44 -1.0028 -2.30154 -1.48273 -0.938458 -24.8375 -1.07209 -1.38921 -4.82481 -1.07206 -1.38921 87.1031 -24.1777 -115.376 47.0974 -2.48124 56.9168 -37.7245 -8.25692 -82.359 -50.4661 12.2714 -31.163 -86.6 -24.9744 78.4448 -8.38624 -15.1614 -87.9528 17.9761 59.8466 -28.9805 71.4856 -13.7796 -16.0744 26.5214 4.74622 -0.349937 -3.48878 4.67777 -1.32311 
58.839 90.8177 -84.1847 75.1126 42.7912 106.187 -172.244 -9.28379 96.8489 -35.3801 21.9779 3.81392 55.879 -1.71106 2.64269 15.173 -4.94829 -2.6912 175.765 55.5153 102.38 -49.2452 -15.5268 1.76407 73.4141 -9.24425 -4.05989 20.9009 1.06875 8.00694 -0.598291 8.74645 -90.817 9.36852 -1.56014 -1.50359 -2.3023 -1.62481 -1.43347 -24.8343 -1.03622 -1.90286 -4.82167 -1.03622 -1.90288 86.4193 -24.4198 -116.692 50.8164 -0.160662 51.121 -34.9718 -15.6471 -69.1428 -54.8432 10.3708 -25.2441 -88.0792 -27.2419 76.1375 -14.5368 -9.73991 -84.3231 23.8017 67.1998 -32.6277 67.5174 -12.7631 -15.6165 28.4886 6.43556 0.885574 -5.32929 5.82303 -0.903195 
66.5394 89.2932 -91.9252 79.7763 41.1783 103.82 -174.636 -13.3821 94.4949 -45.7838 18.9115 5.86695 59.1742 0.862619 5.70515 23.3655 -0.956435 -3.23464 175.952 52.7445 103.514 -42.7752 -14.389 2.69049 69.8026 -6.2281 -2.33965 22.2705 1.08532 6.26369 -0.503523 8.90079 -90.9623 9.05753 -1.43409 -1.80525 -2.61379 -1.51214 -1.7404 -25.1415 -0.825398 -2.15266 -5.12883 -0.825382 -2.15265 85.8209 -25.9482 -117.068 50.3973 3.38049 40.0978 -29.6968 -23.1938 -54.2102 -53.8714 9.29866 -23.5828 -89.3755 -32.5631 75.3145 -15.8569 -3.4217 -79.0933 23.4574 68.644 -33.5078 65.5713 -9.68735 -11.6615 27.3925 7.24675 0.867742 -4.76739 6.6008 0.0203162 
74.1297 87.061 -99.4048 84.1208 41.5129 100.083 -175.007 -11.0706 93.207 -62.3311 17.113 5.78896 60.1102 0.97463 5.80249 28.2744 1.78891 -4.90233 172.242 51.4444 104.254 -51.8766 -15.4831 3.54418 62.803 -1.15779 -5.16122 17.1988 3.37932 5.57488 -0.456666 8.86505 -90.9844 9.12836 -1.35109 -1.85402 -2.54317 -1.43136 -1.79278 -25.0697 -0.731586 -2.17423 -5.05701 -0.73158 -2.17423 87.2149 -27.3074 -113.511 49.3012 5.75321 25.2459 -24.5982 -33.259 -37.9134 -55.0519 8.51919 -21.6214 -91.7708 -38.5645 72.9628 -18.6737 2.17704 -69.513 19.618 72.1347 -30.1548 60.0499 -9.20333 -12.5929 23.483 7.18289 2.79807 -2.91757 5.9542 -0.731501 
80.7829 86.1365 -105.53 87.0771 38.916 100.656 -170.903 -0.820292 98.5988 -80.7576 8.08969 4.42956 60.0718 0.688726 5.4993 28.9307 2.53689 -6.06781 167.892 47.4382 109.85 -62.3795 -18.3197 4.16157 70.4299 -8.1295 -8.8242 12.8065 4.16024 8.30973 0.0390257 8.84509 -91.3701 9.17195 -0.535489 -2.67702 -2.50154 -0.652762 -2.65089 -25.0148 0.293513 -2.7142 -5.00214 0.293522 -2.7142 88.9828 -27.7652 -109.721 46.8996 6.86646 1.61721 -9.04514 -43.3416 -10.8239 -53.6598 10.3669 -25.7203 -93.7882 -46.8154 72.1595 -20.5119 3.62701 -57.1269 19.3515 78.9618 -29.6227 58.443 -9.44105 -13.1632 22.8951 7.59882 4.82586 -2.53244 5.67623 -0.421474 
86.8606 86.5366 -110.777 89.2901 37.3255 100.463 -170.039 14.0894 100.238 -95.7127 3.15098 4.38342 60.413 1.48347 8.18455 21.4146 -0.815251 -5.26744 168.755 40.4562 110.306 -65.1234 -19.8682 3.93969 75.1672 -13.1095 -10.7029 16.7554 3.1606 6.73054 0.245785 8.90416 -91.487 9.05398 -0.173868 -2.93251 -2.62024 -0.302704 -2.92204 -25.1299 0.715151 -2.84935 -5.11724 0.715135 -2.84936 88.6959 -27.6659 -110.347 44.4841 5.03624 -12.8978 -5.16585 -39.9876 -5.37294 -52.2159 10.7232 -27.1195 -93.5339 -49.3898 73.3044 -23.1559 1.98153 -39.2351 12.077 70.6489 -22.3889 53.662 -9.28964 -15.1675 24.755 7.68698 4.32636 -3.95528 5.84529 0.503075 
92.233 87.611 -115.484 88.4562 38.5476 99.5562 -174.015 30.3003 98.5915 -101.727 5.37716 4.61469 61.8971 2.60435 9.91464 18.9498 -1.48111 -5.96902 169.349 35.1255 107.459 -65.1438 -18.8464 3.59773 78.9278 -16.7453 -10.9699 19.3587 1.53999 8.38592 0.281835 8.55516 -91.3232 9.75674 -0.0371254 -2.6235 -1.91686 -0.152499 -2.61934 -24.432 0.752802 -2.51352 -4.41936 0.752815 -2.51353 88.6323 -27.3923 -110.603 41.5695 3.81142 -23.5516 -4.90417 -36.5028 -5.18067 -53.3683 11.3791 -27.865 -92.1985 -49.9267 75.4338 -21.098 1.41196 -24.2299 6.95226 68.5922 -17.6567 51.7578 -7.60357 -12.7789 21.6011 6.36794 4.77246 -2.26742 4.58168 0.582588 
